<?xml version="1.0" encoding="utf-8"?>
<!-- Generator: Adobe Illustrator 28.0.0, SVG Export Plug-In . SVG Version: 6.00 Build 0)  -->
<svg version="1.1" id="Calque_1" xmlns="http://www.w3.org/2000/svg" xmlns:xlink="http://www.w3.org/1999/xlink" x="0px" y="0px"
	 viewBox="0 0 731.4 52.8" style="enable-background:new 0 0 731.4 52.8;" xml:space="preserve">
<style type="text/css">
	.st0{display:none;stroke:#FFFFFF;stroke-width:0.2664;stroke-miterlimit:10;}
	.st1{fill:#2A2E46;}
	.st2{fill:#2B2E46;}
</style>
<rect x="0.8" y="0" class="st0" width="658.9" height="60.3"/>
<g>
	<g>
		<path class="st1" d="M638.9,14.5V9.2h1.6v5.2c0,1.7,0.9,2.6,2.3,2.6s2.3-0.9,2.3-2.5V9.2h1.6v5.2c0,2.7-1.5,4-3.9,4
			C640.5,18.6,638.9,17.1,638.9,14.5z"/>
		<path class="st1" d="M648.9,9.2h1.4l4.9,6.2V9.2h1.5v9.1h-1.3l-5-6.4v6.4h-1.5V9.2z"/>
		<path class="st1" d="M659.3,9.2h1.6v9.1h-1.6V9.2z"/>
		<path class="st1" d="M662.5,9.2h1.7l2.8,7l2.7-7h1.7l-3.7,9.1h-1.4L662.5,9.2z"/>
		<path class="st1" d="M673,9.2h6.7v1.4h-5.2V13h4.5v1.4h-4.5v2.4h5.2v1.4h-6.8L673,9.2L673,9.2z"/>
		<path class="st1" d="M681.7,9.2h4c1.2,0,2,0.4,2.6,0.9c0.5,0.5,0.8,1.2,0.8,1.9l0,0c0,1.5-0.9,2.4-2.1,2.8l2.5,3.5h-1.9l-2.2-3.2
			h-2v3.3h-1.6L681.7,9.2L681.7,9.2z M685.7,13.7c1.2,0,1.8-0.6,1.8-1.5l0,0c0-1-0.7-1.5-1.9-1.5h-2.3v3.1L685.7,13.7L685.7,13.7z"
			/>
		<path class="st1" d="M690.5,17l1-1.2c0.9,0.8,1.7,1.2,2.9,1.2c1,0,1.6-0.5,1.6-1.2l0,0c0-0.7-0.4-1-2-1.3
			c-1.9-0.5-3.1-1.1-3.1-2.7l0,0c0-1.5,1.3-2.6,3.1-2.6c1.3,0,2.4,0.4,3.3,1.2l-0.9,1.2c-0.9-0.6-1.6-1-2.5-1c-1,0-1.4,0.5-1.4,1.1
			l0,0c0,0.7,0.4,1.1,2.2,1.4c1.9,0.5,2.9,1.2,2.9,2.7l0,0c0,1.7-1.3,2.7-3.3,2.7C692.9,18.5,691.6,18,690.5,17z"/>
		<path class="st1" d="M699.5,9.2h1.6v9.1h-1.6V9.2z"/>
		<path class="st1" d="M705.8,10.8h-2.9V9.3h7.4v1.4h-2.9v7.6h-1.6V10.8z"/>
		<path class="st1" d="M712,9.2h6.7v1.4h-5.2V13h4.5v1.4h-4.5v2.4h5.2v1.4h-6.8L712,9.2L712,9.2z M716.2,6.6l1.4,0.6L716,8.4h-1.2
			L716.2,6.6z"/>
		<path class="st1" d="M638.4,30.3l1-1.2c0.9,0.8,1.7,1.2,2.9,1.2c1,0,1.6-0.5,1.6-1.2l0,0c0-0.7-0.4-1-2-1.3
			c-1.9-0.5-3.1-1.1-3.1-2.7l0,0c0-1.5,1.3-2.6,3.1-2.6c1.3,0,2.4,0.4,3.3,1.2l-0.9,1.2c-0.9-0.6-1.6-1-2.5-1c-1,0-1.4,0.5-1.4,1.1
			l0,0c0,0.7,0.4,1.1,2.2,1.4c1.9,0.5,2.9,1.2,2.9,2.7l0,0c0,1.7-1.3,2.7-3.3,2.7C640.8,31.7,639.6,31.2,638.4,30.3z"/>
		<path class="st1" d="M650.4,22.5h1.4l4,9.1h-1.7l-1-2.2h-4.3l-1,2.2h-1.6L650.4,22.5z M652.7,28l-1.5-3.6l-1.6,3.6H652.7z"/>
		<path class="st1" d="M655.3,22.5h1.7l2.8,7l2.7-7h1.7l-3.7,9.1h-1.4L655.3,22.5z"/>
		<path class="st1" d="M664.9,27.1L664.9,27.1c0-2.6,2-4.7,4.8-4.7c2.8,0,4.7,2.1,4.7,4.7l0,0c0,2.6-2,4.7-4.8,4.7
			C666.8,31.8,664.9,29.7,664.9,27.1z M672.7,27.1L672.7,27.1c0-1.8-1.2-3.3-3.1-3.3c-1.8,0-3.1,1.4-3.1,3.2l0,0
			c0,1.7,1.2,3.3,3.1,3.3C671.5,30.3,672.7,28.8,672.7,27.1z"/>
		<path class="st1" d="M676.5,22.5h1.6v9.1h-1.6V22.5z"/>
		<path class="st1" d="M680.5,22.5h6.7v1.4H682v2.4h4.5v1.4H682v2.4h5.2v1.4h-6.8L680.5,22.5L680.5,22.5z"/>
		<path class="st1" d="M639.1,35.7h1.7l2.8,4.3l2.8-4.3h1.7v9.1h-1.6v-6.5l-2.9,4.3h-0.1l-2.9-4.2V45h-1.5V35.7L639.1,35.7z"/>
		<path class="st1" d="M650,40.3L650,40.3c0-2.6,2-4.7,4.8-4.7s4.7,2.1,4.7,4.7l0,0c0,2.6-2,4.7-4.8,4.7
			C651.9,45.1,650,42.9,650,40.3z M657.7,40.3L657.7,40.3c0-1.8-1.2-3.3-3.1-3.3c-1.9,0-3.1,1.4-3.1,3.2l0,0c0,1.7,1.2,3.3,3.1,3.3
			C656.5,43.5,657.7,42.1,657.7,40.3z"/>
		<path class="st1" d="M661.4,35.7h1.4l4.9,6.2v-6.2h1.5v9.1h-1.3l-5-6.4v6.4h-1.5V35.7z"/>
		<path class="st1" d="M673.9,37.3H671v-1.4h7.4v1.4h-2.9v7.6h-1.6V37.3z"/>
		<path class="st1" d="M684,35.7h4c1.1,0,1.8,0.3,2.4,0.8c0.4,0.4,0.6,0.9,0.6,1.5l0,0c0,1.1-0.6,1.6-1.3,2c1.1,0.4,1.8,1,1.8,2.2
			l0,0c0,1.6-1.3,2.5-3.4,2.5h-4.2L684,35.7L684,35.7z M689.4,38.3c0-0.7-0.6-1.2-1.6-1.2h-2.3v2.4h2.2
			C688.8,39.6,689.4,39.2,689.4,38.3L689.4,38.3z M688.1,40.9h-2.5v2.5h2.7c1.1,0,1.7-0.4,1.7-1.2l0,0
			C689.9,41.4,689.3,40.9,688.1,40.9z"/>
		<path class="st1" d="M693.4,35.7h1.6v7.7h4.8v1.4h-6.4V35.7z"/>
		<path class="st1" d="M704.6,35.7h1.4l4,9.1h-1.7l-1-2.2H703l-1,2.2h-1.6L704.6,35.7z M706.9,41.2l-1.5-3.6l-1.5,3.6H706.9z"/>
		<path class="st1" d="M711.7,35.7h1.4l4.9,6.2v-6.2h1.5v9.1h-1.3l-5-6.4v6.4h-1.5V35.7z"/>
		<path class="st1" d="M721.5,40.3L721.5,40.3c0-2.6,1.9-4.7,4.7-4.7c1.6,0,2.7,0.6,3.6,1.4l-1.1,1.2c-0.8-0.7-1.5-1.2-2.6-1.2
			c-1.7,0-3,1.4-3,3.2l0,0c0,1.8,1.2,3.3,3,3.3c1.2,0,1.8-0.5,2.6-1.2l1.1,1.1c-1,1-2,1.6-3.6,1.6C723.5,45.1,721.5,42.9,721.5,40.3
			z"/>
	</g>
	<g>
		<path class="st1" d="M609.3,17.7v2.6c0,0.8,0.6,1.3,1.3,1.3h2.5v-3.9H609.3z"/>
		<path class="st1" d="M615.5,21.5h2.6c0.8,0,1.3-0.6,1.3-1.3v-2.6h-3.9V21.5z"/>
		<polygon class="st1" points="613.1,11.3 611.1,11.3 610.6,11.3 609.3,11.3 609.3,12.7 609.3,13.7 609.3,15.2 613.1,15.2 		"/>
		<polygon class="st1" points="619.4,15.2 619.4,12.7 619.4,12.7 619.4,11.3 618.1,11.3 617.7,11.3 615.5,11.3 615.5,15.2 		"/>
	</g>
	<g>
		<path class="st1" d="M631.5,7.2h-6.9c-0.6,0-1.1,0.5-1.1,1.1s0.5,1.1,1.1,1.1h5.9v24.2c0,1-0.1,1.9-0.3,2.9v0.2l-6.2-8.2
			c-0.2-0.3-0.5-0.4-0.9-0.4c-0.3,0-0.7,0.2-0.9,0.4l-1.9,2.5l-5.2-6.9c-0.2-0.3-0.5-0.4-0.9-0.4c-0.3,0-0.7,0.2-0.9,0.4l-5.2,6.9
			l-1.9-2.5c-0.2-0.3-0.5-0.4-0.9-0.4c-0.3,0-0.7,0.2-0.9,0.4l-6.2,8.2v-0.2c-0.2-1-0.3-1.9-0.3-2.9V9.2h5.9c0.6,0,1.1-0.5,1.1-1.1
			S604.4,7,603.8,7h-6.9c-0.6,0-1.1,0.5-1.1,1.1v25.2c0,3.5,1,6.9,2.9,9.8c0.4,0.7,0.9,1.2,1.3,1.8c1.8,2.2,4.2,4,6.9,5.1
			c0.2,0.1,0.3,0.1,0.5,0.1c0.3,0,0.7-0.2,0.9-0.4l5.7-7.6l0.1,0.1l5.6,7.5c0.1,0.2,0.3,0.3,0.6,0.4h0.1c0.1,0,0.2,0,0.3,0l0,0
			c0.1,0,0.3,0,0.4-0.1c2.7-1.2,5.2-2.9,7-5.2c0.5-0.6,1-1.2,1.3-1.8c1.8-2.9,2.9-6.3,2.9-9.8v-25C632.6,7.6,632.1,7.2,631.5,7.2z
			 M627,43.3c-1.5,2-3.6,3.6-5.8,4.6h-0.1l0,0l-6-8c-0.2-0.3-0.5-0.4-0.9-0.4c-0.3,0-0.7,0.2-0.9,0.4l-6,8.1h-0.1
			c-2.2-1.1-4.2-2.7-5.8-4.6l0,0l0,0l12.7-17l6,8.1L627,43.3L627,43.3z"/>
		<g>
			<path class="st1" d="M622.8,1.8c0-0.6-0.4-1-1-1.1c-0.6,0-1.1,0.3-1.2,0.9l-0.2,1.1C620,3.6,619.1,4,617.9,4
				c-1.2,0-2.7-0.6-2.7-2.2c0-0.6-0.5-1.1-1.1-1.1S613,1.2,613,1.8c0,1.6-1.4,2.2-2.7,2.2c-1.2,0-2.1-0.5-2.5-1.3l0,0l-0.2-1.1
				c-0.1-0.5-0.5-0.9-1.1-0.9h-0.1c-0.6,0-1,0.5-1,1.1c0,0.1,0,0.1,0,0.2c0,0.3,0.2,1.1,0.2,1.2l0,0l0.9,5.2
				c0.1,0.5,0.5,0.9,1.1,0.9h12.5c0.5,0,1-0.4,1.1-0.9l0.9-5.2l0,0c0-0.2,0.2-1,0.2-1.2C622.8,1.9,622.8,1.8,622.8,1.8z M619.7,7.2
				h-10.8l-0.3-1.4h0.1c0.6,0.2,1.2,0.3,1.8,0.3c1.4,0,2.8-0.5,3.6-1.4l0.1-0.1l0.1,0.1c0.9,1,2.2,1.4,3.6,1.4
				c0.7,0,1.2-0.1,1.8-0.3h0.1L619.7,7.2z"/>
		</g>
	</g>
</g>
<g>
	<path class="st2" d="M12.4,26.8c-6.6,0-12-5.4-12-12V0.5h5.4v14.3c0,3.7,3,6.7,6.7,6.7s6.7-3,6.7-6.7V0.5h5.4v14.3
		C24.4,21.4,19,26.8,12.4,26.8z"/>
	<g>
		<polygon class="st2" points="71.6,11.2 80.4,26.4 86.6,26.4 71.6,0.5 56.6,26.4 62.8,26.4 		"/>
	</g>
	<path class="st2" d="M42.4,26.8c-2.5,0-5-0.7-7.3-2.2c-6.2-4-7.9-12.4-3.9-18.5c4-6.2,12.4-7.9,18.5-3.9l-2.9,4.5
		C43.1,4.2,38.1,5.3,35.7,9c-2.4,3.7-1.4,8.7,2.3,11.1s8.7,1.4,11.1-2.3l4.5,2.9C51.1,24.6,46.8,26.8,42.4,26.8z"/>
	<rect x="42.3" y="10.7" class="st2" width="11.9" height="5.4"/>
	<g>
		<polygon class="st2" points="71.6,22.7 65.3,33.8 78,33.8 		"/>
	</g>
	<g>
		<path class="st2" d="M1.3,39c-0.6-0.6-0.9-1.3-0.9-2.2V32H2v4.7c0,0.5,0.1,0.8,0.4,1.1s0.6,0.4,1.1,0.4s0.8-0.1,1.1-0.4
			C4.9,37.6,5,37.2,5,36.7V32h1.6v4.8c0,0.9-0.3,1.6-0.9,2.2c-0.6,0.6-1.3,0.9-2.3,0.9C2.6,39.8,1.9,39.6,1.3,39z"/>
		<path class="st2" d="M13.3,34.3c0.4,0.4,0.6,1,0.6,1.8v3.6h-1.6v-3.3c0-0.9-0.3-1.3-1-1.3c-0.3,0-0.5,0.1-0.7,0.2
			c-0.2,0.1-0.4,0.3-0.5,0.5s-0.2,0.5-0.2,0.8v3.1H8.3v-5.9h1.1l0.3,0.7c0.1-0.1,0.2-0.3,0.4-0.4c0.1-0.1,0.3-0.2,0.5-0.3
			s0.3-0.1,0.5-0.2c0.2,0,0.4-0.1,0.6-0.1C12.4,33.6,12.9,33.9,13.3,34.3z"/>
		<path class="st2" d="M15.5,31.5h1.6V33h-1.6V31.5z M15.5,33.8h1.6v5.9h-1.6V33.8z"/>
		<path class="st2" d="M24.4,33.8l-2.3,5.9h-1.5l-2.4-5.9h1.7l1.5,4l1.4-4H24.4z"/>
		<path class="st2" d="M30.9,37.2h-4.5c0.1,0.4,0.2,0.7,0.5,0.9s0.6,0.3,1,0.3c0.3,0,0.5-0.1,0.7-0.2c0.2-0.1,0.4-0.3,0.5-0.5h1.7
			c-0.2,0.6-0.6,1.1-1.1,1.5s-1.1,0.6-1.8,0.6c-0.9,0-1.6-0.3-2.2-0.9c-0.6-0.6-0.9-1.3-0.9-2.2c0-0.3,0-0.7,0.1-1s0.2-0.6,0.4-0.9
			c0.2-0.3,0.4-0.5,0.6-0.7s0.5-0.3,0.8-0.4s0.6-0.2,1-0.2c0.6,0,1.1,0.1,1.6,0.4c0.5,0.3,0.8,0.7,1.1,1.1c0.3,0.5,0.4,1,0.4,1.5
			C31,36.9,31,37,30.9,37.2z M27,35.3c-0.2,0.2-0.4,0.5-0.5,0.8h2.8c-0.1-0.2-0.2-0.4-0.3-0.6c-0.1-0.2-0.3-0.3-0.5-0.4
			C28.4,35,28.2,35,27.9,35C27.6,35,27.3,35.1,27,35.3z"/>
		<path class="st2" d="M35.9,33.8v1.5h-0.7c-0.5,0-0.8,0.1-1,0.3s-0.3,0.6-0.3,1v3.1h-1.6v-5.9h1l0.3,0.7c0.4-0.5,1-0.8,1.7-0.8h0.6
			V33.8z"/>
		<path class="st2" d="M37.7,39.6c-0.4-0.2-0.7-0.4-0.9-0.7s-0.3-0.7-0.3-1.1H38c0,0.2,0.1,0.3,0.1,0.4c0.1,0.1,0.2,0.2,0.3,0.3
			s0.3,0.1,0.5,0.1s0.3,0,0.4-0.1c0.1,0,0.2-0.1,0.3-0.2c0.1-0.1,0.1-0.2,0.1-0.3c0-0.2-0.1-0.3-0.3-0.4c-0.2-0.1-0.5-0.2-0.9-0.2
			c-0.2,0-0.4-0.1-0.6-0.1c-0.2,0-0.3-0.1-0.6-0.2c-0.2-0.1-0.4-0.2-0.5-0.3s-0.2-0.3-0.3-0.5s-0.1-0.4-0.1-0.7c0-0.6,0.2-1,0.7-1.4
			s1-0.5,1.7-0.5s1.3,0.2,1.7,0.5c0.4,0.4,0.6,0.8,0.6,1.4h-1.5c0-0.5-0.3-0.7-0.9-0.7c-0.2,0-0.4,0.1-0.6,0.2
			c-0.1,0.1-0.2,0.2-0.2,0.4c0,0.1,0,0.1,0.1,0.2c0,0.1,0.1,0.1,0.1,0.1c0.1,0,0.1,0.1,0.3,0.1c0.1,0,0.2,0.1,0.3,0.1l0.4,0.1
			c0.1,0,0.2,0,0.3,0.1c0.1,0,0.2,0,0.3,0.1c0.1,0,0.2,0.1,0.3,0.1s0.2,0.1,0.3,0.1s0.2,0.1,0.3,0.1s0.1,0.1,0.2,0.2
			c0.1,0.1,0.2,0.1,0.2,0.2c0.1,0.1,0.1,0.2,0.2,0.3c0.1,0.1,0.1,0.2,0.1,0.3s0,0.3,0,0.4c0,0.6-0.2,1.1-0.7,1.4
			c-0.5,0.4-1,0.5-1.8,0.5C38.5,39.8,38.1,39.8,37.7,39.6z"/>
		<path class="st2" d="M42.9,31.5h1.6V33h-1.6V31.5z M42.9,33.8h1.6v5.9h-1.6V33.8z"/>
		<path class="st2" d="M49.8,38.3v1.4h-1.1c-0.4,0-0.8-0.1-1.1-0.3S47,39,46.9,38.7c-0.2-0.3-0.3-0.7-0.3-1.1v-2.5h-1.1v-0.3
			l2.3-2.5h0.3v1.5h1.6v1.3h-1.6v2.3c0,0.3,0.1,0.5,0.2,0.7c0.2,0.2,0.4,0.2,0.7,0.2C49,38.3,49.8,38.3,49.8,38.3z"/>
		<path class="st2" d="M56.8,37.2h-4.5c0.1,0.4,0.2,0.7,0.5,0.9s0.6,0.3,1,0.3c0.3,0,0.5-0.1,0.7-0.2c0.2-0.1,0.4-0.3,0.5-0.5h1.7
			c-0.2,0.6-0.6,1.1-1.1,1.5s-1.1,0.6-1.8,0.6c-0.9,0-1.6-0.3-2.2-0.9c-0.6-0.6-0.9-1.3-0.9-2.2c0-0.3,0-0.7,0.1-1s0.2-0.6,0.4-0.9
			c0.2-0.3,0.4-0.5,0.6-0.7c0.2-0.2,0.5-0.3,0.8-0.4c0.3-0.1,0.6-0.2,1-0.2c0.6,0,1.1,0.1,1.6,0.4c0.5,0.3,0.8,0.7,1.1,1.1
			c0.3,0.5,0.4,1,0.4,1.5C56.8,36.9,56.8,37,56.8,37.2z M52.9,35.3c-0.2,0.2-0.4,0.5-0.5,0.8h2.8c-0.1-0.2-0.2-0.4-0.3-0.6
			c-0.1-0.2-0.3-0.3-0.5-0.4C54.2,35,54,35,53.8,35C53.4,35,53.1,35.1,52.9,35.3z M54.2,33.1H53l0.6-1.7h1.7L54.2,33.1z"/>
		<path class="st2" d="M7.9,46.7c0,1.2-0.4,2.2-1.1,3C6,50.5,5.1,50.9,4,50.9s-2.1-0.4-2.8-1.1C0.4,49,0,48.1,0,46.9
			c0-1.1,0.4-2.1,1.1-2.9c0.7-0.8,1.7-1.1,2.8-1.1c1,0,1.8,0.3,2.5,0.8s1.2,1.2,1.3,2.1H6c-0.1-0.3-0.3-0.5-0.5-0.7
			s-0.4-0.4-0.7-0.5c-0.3-0.1-0.6-0.2-0.9-0.2c-0.7,0-1.2,0.2-1.6,0.7s-0.6,1-0.6,1.7c0,0.5,0.1,0.9,0.3,1.2
			c0.2,0.4,0.5,0.6,0.8,0.9c0.3,0.2,0.7,0.3,1.2,0.3c0.3,0,0.6-0.1,0.9-0.2c0.3-0.1,0.5-0.3,0.7-0.5c0.2,0,0.4-0.2,0.5-0.5H3.8v-1.3
			H7.9z"/>
		<path class="st2" d="M12.7,44.8v1.5H12c-0.5,0-0.8,0.1-1,0.3s-0.3,0.6-0.3,1v3.1H9.2v-5.9h1l0.3,0.7c0.4-0.5,1-0.8,1.7-0.8h0.5
			V44.8z"/>
		<path class="st2" d="M19.4,48.2H15c0.1,0.4,0.2,0.7,0.5,0.9s0.6,0.3,1,0.3c0.3,0,0.5-0.1,0.7-0.2c0.2-0.1,0.4-0.3,0.5-0.5h1.7
			c-0.2,0.6-0.6,1.1-1.1,1.5s-1.1,0.6-1.8,0.6c-0.9,0-1.6-0.3-2.2-0.9c-0.6-0.6-0.9-1.3-0.9-2.2c0-0.3,0-0.7,0.1-1s0.2-0.6,0.4-0.9
			c0.2-0.3,0.4-0.5,0.6-0.7c0.2-0.2,0.5-0.3,0.8-0.4c0.3-0.1,0.6-0.2,1-0.2c0.6,0,1.1,0.1,1.6,0.4c0.5,0.3,0.8,0.7,1.1,1.1
			c0.3,0.5,0.4,1,0.4,1.5C19.4,47.9,19.4,48.1,19.4,48.2z M15.5,46.3c-0.2,0.2-0.4,0.5-0.5,0.8h2.8c-0.1-0.2-0.2-0.4-0.3-0.6
			c-0.1-0.2-0.3-0.3-0.5-0.4C16.8,46,16.6,46,16.4,46C16,46,15.7,46.1,15.5,46.3z"/>
		<path class="st2" d="M25.8,45.4c0.4,0.4,0.6,1,0.6,1.8v3.6h-1.6v-3.3c0-0.9-0.3-1.3-1-1.3c-0.3,0-0.5,0.1-0.7,0.2
			c-0.2,0.1-0.4,0.3-0.5,0.5s-0.2,0.5-0.2,0.8v3.1h-1.6v-5.9h1.1l0.3,0.7c0.1-0.1,0.2-0.3,0.4-0.4c0.1-0.1,0.3-0.2,0.5-0.3
			s0.3-0.1,0.5-0.2c0.2,0,0.4-0.1,0.6-0.1C24.8,44.7,25.4,44.9,25.8,45.4z"/>
		<path class="st2" d="M29.2,50.5c-0.5-0.3-0.9-0.6-1.1-1.1c-0.3-0.5-0.4-1-0.4-1.6c0-0.9,0.3-1.6,0.9-2.2c0.6-0.6,1.4-0.9,2.3-0.9
			s1.7,0.3,2.3,0.9c0.6,0.6,0.9,1.3,0.9,2.2s-0.3,1.6-0.9,2.2c-0.6,0.6-1.4,0.9-2.3,0.9C30.2,50.9,29.7,50.8,29.2,50.5z M31.9,48.9
			c0.3-0.3,0.4-0.7,0.4-1.2s-0.1-0.9-0.4-1.2c-0.3-0.3-0.7-0.5-1.1-0.5s-0.8,0.2-1.1,0.5c-0.3,0.3-0.4,0.7-0.4,1.2
			c0,0.2,0,0.5,0.1,0.7s0.2,0.4,0.3,0.5c0.1,0.1,0.3,0.2,0.5,0.3s0.4,0.1,0.6,0.1C31.3,49.4,31.7,49.2,31.9,48.9z"/>
		<path class="st2" d="M40.8,45.6c0.6,0.6,0.9,1.3,0.9,2.2s-0.3,1.6-0.9,2.2c-0.6,0.6-1.3,0.9-2.2,0.9c-0.7,0-1.3-0.2-1.8-0.7
			l-0.2,0.5h-1.2v-8H37v2.4c0.5-0.3,1-0.5,1.6-0.5C39.5,44.7,40.2,45,40.8,45.6z M39.6,48.9c0.3-0.3,0.5-0.7,0.5-1.1
			c0-0.3-0.1-0.6-0.2-0.8c-0.1-0.2-0.3-0.4-0.6-0.6c-0.2-0.1-0.5-0.2-0.8-0.2s-0.6,0.1-0.8,0.2c-0.2,0.1-0.4,0.3-0.6,0.6
			c-0.1,0.2-0.2,0.5-0.2,0.8c0,0.5,0.2,0.8,0.5,1.1s0.7,0.5,1.2,0.5C38.9,49.4,39.3,49.2,39.6,48.9z"/>
		<path class="st2" d="M43,42.7h1.6v8H43V42.7z"/>
		<path class="st2" d="M52.1,48.2h-4.5c0.1,0.4,0.2,0.7,0.5,0.9s0.6,0.3,1,0.3c0.3,0,0.5-0.1,0.7-0.2c0.2-0.1,0.4-0.3,0.5-0.5H52
			c-0.2,0.6-0.6,1.1-1.1,1.5s-1.1,0.6-1.8,0.6c-0.9,0-1.6-0.3-2.2-0.9c-0.6-0.6-0.9-1.3-0.9-2.2c0-0.3,0-0.7,0.1-1s0.2-0.6,0.4-0.9
			c0.2-0.3,0.4-0.5,0.6-0.7c0.2-0.2,0.5-0.3,0.8-0.4c0.3-0.1,0.6-0.2,1-0.2c0.6,0,1.1,0.1,1.6,0.4c0.5,0.3,0.8,0.7,1.1,1.1
			c0.3,0.5,0.4,1,0.4,1.5C52.1,47.9,52.1,48.1,52.1,48.2z M48.1,46.3c-0.2,0.2-0.4,0.5-0.5,0.8h2.8c-0.1-0.2-0.2-0.4-0.3-0.6
			c-0.1-0.2-0.3-0.3-0.5-0.4c-0.1,0-0.3-0.1-0.6-0.1S48.4,46.1,48.1,46.3z"/>
		<path class="st2" d="M60.6,49.3h-3l-0.5,1.5h-1.7l3-7.6H60l3.1,7.6h-1.8L60.6,49.3z M58.1,47.8h2l-1-2.7L58.1,47.8z"/>
		<path class="st2" d="M64,42.7h1.6v8H64V42.7z"/>
		<path class="st2" d="M72.8,45.6c0.6,0.6,0.9,1.3,0.9,2.2s-0.3,1.6-0.9,2.2c-0.6,0.6-1.3,0.9-2.2,0.9c-0.6,0-1.1-0.2-1.6-0.5v2.4
			h-1.6v-8h1.1l0.3,0.5c0.5-0.5,1.2-0.7,1.9-0.7C71.5,44.7,72.2,45,72.8,45.6z M71.6,48.9c0.3-0.3,0.5-0.7,0.5-1.2
			c0-0.3-0.1-0.6-0.2-0.8s-0.3-0.4-0.6-0.6c-0.2-0.1-0.5-0.2-0.8-0.2s-0.6,0.1-0.8,0.2c-0.2,0.1-0.4,0.3-0.6,0.6
			c-0.1,0.2-0.2,0.5-0.2,0.8c0,0.5,0.2,0.9,0.5,1.2s0.7,0.5,1.1,0.5S71.3,49.2,71.6,48.9z"/>
		<path class="st2" d="M80.7,48.2h-4.5c0.1,0.4,0.2,0.7,0.5,0.9s0.6,0.3,1,0.3c0.3,0,0.5-0.1,0.7-0.2c0.2-0.1,0.4-0.3,0.5-0.5h1.7
			c-0.2,0.6-0.6,1.1-1.1,1.5s-1.1,0.6-1.8,0.6c-0.9,0-1.6-0.3-2.2-0.9s-0.9-1.3-0.9-2.2c0-0.3,0-0.7,0.1-1s0.2-0.6,0.4-0.9
			c0.2-0.3,0.4-0.5,0.6-0.7s0.5-0.3,0.8-0.4s0.6-0.2,1-0.2c0.6,0,1.1,0.1,1.6,0.4c0.5,0.3,0.8,0.7,1.1,1.1c0.3,0.5,0.4,1,0.4,1.5
			C80.8,47.9,80.7,48.1,80.7,48.2z M76.8,46.3c-0.2,0.2-0.4,0.5-0.5,0.8h2.8c-0.1-0.2-0.2-0.4-0.3-0.6c-0.1-0.2-0.3-0.3-0.5-0.4
			C78.1,46,77.9,46,77.7,46C77.4,46,77.1,46.1,76.8,46.3z"/>
		<path class="st2" d="M82.9,50.6c-0.4-0.2-0.7-0.4-0.9-0.7c-0.2-0.3-0.3-0.7-0.3-1.1h1.5c0,0.2,0.1,0.3,0.1,0.4
			c0.1,0.1,0.2,0.2,0.3,0.3s0.3,0.1,0.5,0.1s0.3,0,0.4-0.1c0.1,0,0.2-0.1,0.3-0.2c0.1-0.1,0.1-0.2,0.1-0.3c0-0.2-0.1-0.3-0.3-0.4
			c-0.2-0.1-0.5-0.2-0.9-0.2c-0.2,0-0.4-0.1-0.6-0.1s-0.3-0.1-0.6-0.2c-0.2-0.1-0.4-0.2-0.5-0.3s-0.2-0.3-0.3-0.5
			c-0.1-0.2-0.1-0.4-0.1-0.7c0-0.6,0.2-1,0.7-1.4c0.4-0.3,1-0.5,1.7-0.5s1.3,0.2,1.7,0.5c0.4,0.4,0.6,0.8,0.6,1.4H85
			c0-0.5-0.3-0.7-0.9-0.7c-0.2,0-0.4,0.1-0.6,0.2c-0.1,0.1-0.2,0.2-0.2,0.4c0,0.1,0,0.1,0.1,0.2c0,0.1,0.1,0.1,0.1,0.1
			c0.1,0,0.1,0.1,0.3,0.1c0.1,0,0.2,0.1,0.3,0.1l0.4,0.1c0.1,0,0.2,0,0.3,0.1c0.1,0,0.2,0,0.3,0.1c0.1,0,0.2,0.1,0.3,0.1
			c0.1,0,0.2,0.1,0.3,0.1c0.1,0,0.2,0.1,0.3,0.1c0.1,0,0.1,0.1,0.2,0.2c0.1,0.1,0.2,0.1,0.2,0.2c0.1,0.1,0.1,0.2,0.2,0.3
			s0.1,0.2,0.1,0.3s0,0.3,0,0.4c0,0.6-0.2,1.1-0.7,1.4c-0.5,0.4-1,0.5-1.8,0.5C83.7,50.9,83.3,50.8,82.9,50.6z"/>
	</g>
</g>
<g>
	<g>
		<g>
			<path class="st1" d="M144,50.2c-2.2,0-3.9-1.6-3.9-3.6v-4.3h1.8v4.3c0,1.1,1,2,2.2,2s2.2-0.9,2.2-2v-4.3h1.8v4.3
				C148,48.6,146.2,50.2,144,50.2z"/>
			<g>
				<polygon class="st1" points="163.4,45.5 166.3,50.1 168.4,50.1 163.4,42.2 158.5,50.1 160.6,50.1 				"/>
			</g>
			<path class="st1" d="M153.9,50.2c-0.8,0-1.7-0.2-2.4-0.7c-2-1.2-2.6-3.7-1.3-5.6c1.3-1.9,4-2.4,6.1-1.2l-1,1.4
				c-1.2-0.7-2.8-0.4-3.6,0.7c-0.8,1.1-0.5,2.6,0.8,3.4c1.2,0.7,2.8,0.4,3.6-0.7l1.5,0.9C156.7,49.6,155.3,50.2,153.9,50.2z"/>
			<rect x="153.8" y="45.3" class="st1" width="3.9" height="1.6"/>
			<g>
				<polygon class="st1" points="163.4,49 161.4,52.3 165.5,52.3 				"/>
			</g>
		</g>
	</g>
	<g>
		<path class="st1" d="M194,10.3h-7.3c-2.4,0-4.4,2-4.4,4.4V39h5.6V15.5h6.2c3.7,0,5,1.9,5,4.5s-1.3,4.5-5,4.5h-3.9v5.1h3.8
			c7.4,0,10.7-4.1,10.7-9.7S201.5,10.3,194,10.3z"/>
		<rect x="140.1" y="10.3" class="st1" width="5.2" height="28.7"/>
		<path class="st1" d="M140.1,7h5.2V0.7l0,0c-2.9,0-5.2,2.3-5.2,5.2V7z"/>
		<path class="st1" d="M169.7,20.8l-13.8-10l0,0c-0.5-0.3-1.2-0.5-1.9-0.5c-2,0-3.6,1.6-3.6,3.6V39h5.2V17.3l14,10.2v-6.7H169.7z"/>
		<path class="st1" d="M157.7,28.5l13.8,10l0,0c0.5,0.3,1.2,0.5,1.9,0.5c2,0,3.6-1.6,3.6-3.6V10.3h-5.2v21.6l-14-10.2v6.8H157.7z"/>
	</g>
	<g>
		<path class="st1" d="M152.7,2.5c0.1-0.2,0.3-0.3,0.5-0.4c0.4-0.2,1-0.2,1.4,0c0.2,0.1,0.4,0.2,0.5,0.4l0.1,0.1l1.1-1.2l-0.1-0.1
			c-0.3-0.3-0.6-0.5-1-0.6c-0.8-0.3-1.9-0.3-2.7,0c-0.4,0.2-0.8,0.4-1.1,0.7s-0.6,0.6-0.7,1c-0.2,0.4-0.3,0.9-0.3,1.4
			s0.1,0.9,0.3,1.3c0.2,0.4,0.4,0.8,0.7,1c0.3,0.3,0.7,0.5,1.1,0.7c0.4,0.2,0.9,0.2,1.4,0.2s0.9,0,1.3-0.1l0,0
			c0.4-0.1,0.8-0.2,1.1-0.4h0.1V3.1h-2.7v1.4h1.2v0.9c-0.1,0-0.2,0.1-0.3,0.1s-0.3,0-0.5,0c-0.3,0-0.5,0-0.7-0.1S153,5.2,152.9,5
			s-0.3-0.3-0.3-0.6c-0.1-0.2-0.1-0.5-0.1-0.7c0-0.3,0-0.5,0.1-0.7C152.4,2.8,152.5,2.7,152.7,2.5z"/>
		<path class="st1" d="M162.9,3.7c0.2-0.3,0.4-0.7,0.4-1.1s-0.1-0.7-0.2-0.9c-0.1-0.2-0.3-0.5-0.6-0.6c-0.2-0.1-0.5-0.3-0.8-0.3
			c-0.3-0.1-0.6-0.1-0.9-0.1h-2.4V7h1.7V4.5h0.3l1.3,2.4h2l-1.6-2.6C162.4,4.2,162.7,4,162.9,3.7z M160.1,2.1h0.7c0.1,0,0.2,0,0.3,0
			s0.2,0,0.3,0.1c0.1,0,0.1,0.1,0.2,0.2c0,0.1,0.1,0.2,0.1,0.3s0,0.2-0.1,0.3s-0.1,0.1-0.2,0.2c-0.1,0-0.2,0.1-0.3,0.1s-0.2,0-0.3,0
			h-0.6L160.1,2.1L160.1,2.1z"/>
		<polygon class="st1" points="167.1,4.4 169.6,4.4 169.6,3 167.1,3 167.1,2.1 169.8,2.1 169.8,0.6 165.4,0.6 165.4,6.9 169.9,6.9 
			169.9,5.4 167.1,5.4 		"/>
		<polygon class="st1" points="176,4.3 173.8,0.6 171.9,0.6 171.9,6.9 173.6,6.9 173.5,3.3 175.8,6.9 177.6,6.9 177.6,0.6 176,0.6 
					"/>
		<path class="st1" d="M185.1,1.4c-0.3-0.3-0.7-0.5-1.1-0.7c-0.8-0.3-1.9-0.3-2.7,0c-0.4,0.2-0.8,0.4-1.1,0.7s-0.5,0.6-0.7,1
			s-0.3,0.9-0.3,1.4s0.1,0.9,0.3,1.4c0.2,0.4,0.4,0.8,0.7,1.1c0.3,0.3,0.7,0.5,1.1,0.7c0.4,0.2,0.9,0.2,1.4,0.2s0.9-0.1,1.4-0.2
			c0.4-0.2,0.8-0.4,1.1-0.7c0.3-0.3,0.5-0.6,0.7-1.1c0.2-0.4,0.3-0.9,0.3-1.4s-0.1-1-0.3-1.4S185.4,1.6,185.1,1.4z M184.3,3.8
			c0,0.3,0,0.5-0.1,0.7s-0.2,0.4-0.3,0.6s-0.3,0.3-0.5,0.4c-0.4,0.2-0.9,0.2-1.3,0c-0.2-0.1-0.4-0.2-0.5-0.4
			c-0.1-0.2-0.2-0.3-0.3-0.6c-0.1-0.2-0.1-0.5-0.1-0.7s0-0.5,0.1-0.7s0.2-0.4,0.3-0.5s0.3-0.3,0.5-0.4c0.2-0.1,0.4-0.1,0.6-0.1
			c0.2,0,0.5,0,0.7,0.1s0.4,0.2,0.5,0.4c0.1,0.1,0.2,0.3,0.3,0.5S184.3,3.5,184.3,3.8z"/>
		<path class="st1" d="M192.3,4c-0.1-0.1-0.3-0.2-0.4-0.3c-0.1,0-0.1-0.1-0.2-0.1c0.2-0.1,0.3-0.2,0.5-0.4s0.3-0.5,0.3-0.9
			c0-0.3-0.1-0.6-0.2-0.8c-0.1-0.2-0.3-0.4-0.5-0.5s-0.4-0.2-0.7-0.3c-0.3,0-0.5-0.1-0.7-0.1h-2.5v6.3h2.5c0.3,0,0.6,0,0.9-0.1
			c0.3-0.1,0.6-0.2,0.8-0.3c0.2-0.1,0.4-0.3,0.6-0.6c0.1-0.2,0.2-0.5,0.2-0.9c0-0.2,0-0.4-0.1-0.6C192.5,4.3,192.4,4.1,192.3,4z
			 M190.6,2.9C190.5,3,190.3,3,190.1,3h-0.7V2h0.6c0.3,0,0.5,0,0.6,0.1s0.2,0.2,0.2,0.3C190.8,2.7,190.8,2.8,190.6,2.9z M189.4,4.4
			h0.7c0.3,0,0.5,0,0.7,0.1c0.1,0.1,0.2,0.2,0.2,0.4c0,0.1,0,0.2-0.1,0.3c-0.1,0.1-0.1,0.1-0.2,0.2c-0.1,0-0.2,0.1-0.3,0.1
			s-0.2,0-0.3,0h-0.7L189.4,4.4L189.4,4.4z"/>
		<polygon class="st1" points="196.3,0.6 194.5,0.6 194.5,6.9 198.6,6.9 198.6,5.4 196.3,5.4 		"/>
		<polygon class="st1" points="201.9,5.4 201.9,4.4 204.4,4.4 204.4,3 201.9,3 201.9,2.1 204.5,2.1 204.5,0.6 200.2,0.6 200.2,6.9 
			204.7,6.9 204.7,5.4 		"/>
	</g>
</g>
<g>
	<g>
		<polygon class="st1" points="356.7,32.4 364.5,24.6 370.4,30.5 377.9,30.5 377.9,32.7 369.4,32.7 364.5,27.7 358.3,33.9 		"/>
		<polygon class="st1" points="349,31.2 353.9,26.4 357.2,29.7 355.6,31.3 353.9,29.5 350.7,32.7 		"/>
	</g>
	<g>
		<g>
			<path class="st1" d="M260.2,23.1c3.4,0,5.6-1.8,5.6-4.6c0-2.5-1.4-3.9-4.8-4.7l-1.4-0.3c-2.6-0.6-3.1-1.5-3.1-2.6
				c0-1.5,1.2-2.5,3.1-2.5s3,0.4,4.3,1.9l0.1,0.1l1.6-1.5l-0.1-0.1c-1.5-1.7-3.3-2.6-5.8-2.6c-3.4,0-5.6,1.7-5.6,4.6
				c0,2.4,1.5,3.8,4.7,4.6l1.4,0.3c2.5,0.6,3.2,1.3,3.2,2.7c0,1.6-1.3,2.5-3.4,2.5s-3.3-0.5-4.7-2.1l-0.1-0.1l-1.6,1.5l0.1,0.1
				C255.3,22.1,257.6,23.1,260.2,23.1L260.2,23.1z"/>
			<path class="st1" d="M278.1,21.3L278.1,21.3l-1.3-1.6l-0.1,0.1c-0.9,0.9-1.7,1.3-3,1.3c-2.1,0-3.6-1.7-3.6-4.1s1.5-4.1,3.6-4.1
				c1.2,0,2,0.3,2.9,1.2l0.1,0.1l1.4-1.5l-0.1-0.1c-1.1-1.1-2.6-1.7-4.3-1.7c-3.4,0-5.9,2.6-5.9,6s2.5,6,5.9,6
				C275.4,23.1,276.9,22.5,278.1,21.3L278.1,21.3z"/>
			<rect x="280.1" y="11.3" class="st1" width="2.1" height="11.6"/>
			<path class="st1" d="M281.3,9.6c0.8,0,1.4-0.6,1.4-1.4s-0.6-1.4-1.4-1.4s-1.4,0.6-1.4,1.4S280.4,9.6,281.3,9.6z"/>
			<path class="st1" d="M295.5,21.2l-1.2-1.5l-0.1,0.1c-0.9,0.9-1.8,1.3-3.2,1.3c-2.1,0-3.8-1.4-3.9-3.6h8.8v-0.1c0-0.2,0-0.4,0-0.6
				c0-3.4-2.1-5.7-5.4-5.7c-3.3,0-5.7,2.6-5.7,6s2.5,6,6.1,6C292.7,23.1,294.4,22.5,295.5,21.2L295.5,21.2L295.5,21.2z M290.6,12.9
				c1.7,0,3,1.1,3.2,2.9h-6.6C287.6,14.1,288.9,12.9,290.6,12.9z"/>
			<path class="st1" d="M306.7,16.1v6.8h2.1V16c0-3.1-1.6-4.9-4.5-4.9c-1.5,0-2.8,0.5-3.6,1.6v-1.4h-2.1v11.6h2.1v-6.6
				c0-1.9,1.3-3.2,3.2-3.2C305.8,13,306.7,14.1,306.7,16.1z"/>
			<path class="st1" d="M321.6,21.2l-1.3-1.5l-0.1,0.1c-0.9,0.9-1.7,1.3-3,1.3c-2.1,0-3.6-1.7-3.6-4.1s1.5-4.1,3.6-4.1
				c1.2,0,2,0.3,2.9,1.2l0.1,0.1l1.4-1.5l-0.1-0.1c-1.1-1.1-2.6-1.7-4.3-1.7c-3.4,0-5.9,2.6-5.9,6s2.5,6,5.9,6
				C318.9,23.1,320.4,22.5,321.6,21.2L321.6,21.2L321.6,21.2z"/>
			<path class="st1" d="M328.9,23.1c1.8,0,3.3-0.6,4.4-1.7l0.1-0.1l-1.2-1.5l-0.1,0.1c-0.9,0.9-1.8,1.3-3.2,1.3
				c-2.1,0-3.8-1.4-3.9-3.6h8.8v-0.1c0-0.2,0-0.4,0-0.6c0-3.4-2.1-5.7-5.4-5.7c-3.3,0-5.7,2.6-5.7,6S325.2,23.1,328.9,23.1
				L328.9,23.1z M328.5,12.9c1.7,0,3,1.1,3.2,2.9H325C325.5,14.1,326.7,12.9,328.5,12.9z"/>
			<path class="st1" d="M345.1,19.5c0-2-1.5-2.8-4-3.4l-0.4-0.1c-2.1-0.5-2.6-1-2.6-1.6c0-1,0.9-1.5,2.3-1.5c1.4,0,2.3,0.5,3.2,1.4
				l0.1,0.1l1.3-1.5l-0.1-0.1c-1.3-1.2-2.7-1.7-4.5-1.7c-2.8,0-4.5,1.3-4.5,3.3c0,1.8,1.1,2.8,4.1,3.5l0.4,0.1
				c2.1,0.5,2.5,0.9,2.5,1.6c0,1-0.9,1.5-2.5,1.5c-1.4,0-2.5-0.4-3.4-1.5l-0.1-0.1l-1.3,1.5l0.1,0.1c1.3,1.3,2.9,1.9,4.8,1.9
				C343.1,23.1,345.1,21.7,345.1,19.5L345.1,19.5z"/>
			<path class="st1" d="M358.7,6.5h-6v16.3h2.3v-5.6h3.5c3.8,0,6.2-2.1,6.2-5.5S362.3,6.5,358.7,6.5L358.7,6.5z M358.5,15.2h-3.5
				V8.6h3.5c2.5,0,3.9,1.3,3.9,3.3C362.5,13.9,360.8,15.2,358.5,15.2z"/>
			<path class="st1" d="M371.9,11.1c-3.4,0-6,2.6-6,6s2.6,6,6,6s6-2.6,6-6S375.3,11.1,371.9,11.1z M371.9,21.1
				c-2.3,0-3.9-1.7-3.9-4.1s1.6-4.1,3.9-4.1s3.9,1.7,3.9,4.1S374,21.1,371.9,21.1z"/>
			<path class="st1" d="M262.2,40h5v0.9c0,2.5-1.9,4-4.9,4c-3.5,0-5.8-2.6-5.8-6.3c0-3.8,2.4-6.3,5.9-6.3c2.3,0,4,0.8,5.1,2.3
				l0.1,0.1l1.7-1.4l-0.1-0.1c-1.6-1.9-4-2.9-6.9-2.9c-4.7,0-8.2,3.5-8.2,8.4s3.4,8.4,8.2,8.4c2.4,0,4-0.8,5-2.3v2h2V38h-7.2
				L262.2,40L262.2,40z"/>
			<path class="st1" d="M277.6,35c-1.4,0-2.6,0.6-3.2,1.6v-1.5h-2.1v11.6h2.1v-6.5c0-1.4,0.9-3.1,3.1-3.1c0.4,0,0.9,0,1.1,0.1
				l0.2,0.1v-2.1h-0.1C278.5,35,278.2,35,277.6,35L277.6,35z"/>
			<path class="st1" d="M285,34.9c-3.2,0-5.7,2.6-5.7,6c0,3.4,2.5,6,6.1,6c1.8,0,3.3-0.6,4.4-1.7L290,45l-1.2-1.5l-0.1,0.1
				c-0.9,0.9-1.8,1.3-3.2,1.3c-2.1,0-3.8-1.4-3.9-3.6h8.8v-0.1c0-0.2,0-0.4,0-0.6C290.4,37.1,288.2,34.9,285,34.9L285,34.9z
				 M285,36.8c1.7,0,3,1.1,3.2,2.9h-6.6C282,37.9,283.3,36.8,285,36.8z"/>
			<path class="st1" d="M298.4,34.9c-1.5,0-2.8,0.5-3.6,1.6v-1.4h-2.1v11.6h2.1V40c0-1.9,1.3-3.2,3.2-3.2c1.8,0,2.7,1.1,2.7,3.1v6.8
				h2.1v-6.9C302.9,36.7,301.2,34.9,298.4,34.9L298.4,34.9z"/>
			<path class="st1" d="M311,34.9c-3.4,0-6,2.6-6,6c0,3.4,2.6,6,6,6s6-2.6,6-6S314.4,34.9,311,34.9L311,34.9z M311,44.9
				c-2.3,0-3.9-1.7-3.9-4.1s1.6-4.1,3.9-4.1s3.9,1.7,3.9,4.1C314.7,43.2,313.1,44.9,311,44.9z"/>
			<path class="st1" d="M325.2,34.9c-1.6,0-3,0.8-4,1.9v-6.4h-2.1v16.3h2.1V45c1,1.2,2.4,1.8,4,1.8c3.3,0,5.7-2.6,5.7-6
				S328.6,34.9,325.2,34.9L325.2,34.9z M328.8,40.9c0,2.4-1.6,4.1-3.8,4.1c-2.1,0-3.8-1.7-3.8-4.1s1.6-4.1,3.8-4.1
				C327.2,36.8,328.8,38.6,328.8,40.9z"/>
			<rect x="333.2" y="30.4" class="st1" width="2.1" height="16.3"/>
			<path class="st1" d="M343.3,34.9c-3.2,0-5.7,2.6-5.7,6c0,3.4,2.5,6,6.1,6c1.8,0,3.3-0.6,4.4-1.7l0.1-0.1l-1.2-1.5l-0.1,0.1
				c-0.9,0.9-1.8,1.3-3.2,1.3c-2.1,0-3.8-1.4-3.9-3.6h8.8v-0.1c0-0.2,0-0.4,0-0.6C348.6,37.1,346.5,34.9,343.3,34.9z M343.1,36.8
				c1.7,0,3,1.1,3.2,2.9h-6.6C340.3,37.9,341.5,36.8,343.1,36.8z"/>
		</g>
		<g>
			<path class="st1" d="M356.2,44.6c-1.9,0-3.5-1.6-3.5-3.5v-4.2h1.6v4.2c0,1.1,0.9,1.9,1.9,1.9s1.9-0.9,1.9-1.9v-4.2h1.6v4.2
				C359.8,43.1,358.2,44.6,356.2,44.6L356.2,44.6z"/>
			<polygon class="st1" points="373.6,40.1 376.2,44.5 378,44.5 373.6,36.9 369.2,44.5 371,44.5 			"/>
			<path class="st1" d="M365,44.6c-0.8,0-1.5-0.2-2.1-0.6c-1.8-1.2-2.4-3.6-1.2-5.5c1.2-1.8,3.6-2.4,5.5-1.2l-0.9,1.3
				c-1.1-0.8-2.6-0.4-3.2,0.6c-0.8,1.1-0.4,2.6,0.6,3.2c1.1,0.6,2.6,0.4,3.2-0.6l1.3,0.9C367.6,44.1,366.3,44.6,365,44.6L365,44.6z"
				/>
			<rect x="365" y="39.9" class="st1" width="3.5" height="1.6"/>
			<polygon class="st1" points="373.6,43.4 371.8,46.7 375.5,46.7 			"/>
		</g>
	</g>
</g>
<g>
	<path class="st1" d="M505.9,34.3c-4.2,0-7.6-3.4-7.6-7.6v-8.9h3.4v8.9c0,2.3,1.9,4.2,4.2,4.2s4.2-1.9,4.2-4.2v-8.9h3.4v8.9
		C513.5,30.9,510.1,34.3,505.9,34.3"/>
	<polygon class="st1" points="543.1,24.5 548.6,34 552.4,34 543.1,17.8 533.7,34 537.6,34 	"/>
	<path class="st1" d="M524.8,34.3c-1.6,0-3.2-0.4-4.6-1.4c-3.9-2.5-5-7.7-2.4-11.6c2.5-3.9,7.7-5,11.6-2.4l-1.8,2.8
		c-2.3-1.5-5.4-0.9-7,1.5c-1.5,2.3-0.9,5.4,1.5,7c2.3,1.5,5.4,0.9,7-1.5l2.8,1.8C530.2,32.9,527.5,34.3,524.8,34.3"/>
	<rect x="524.7" y="24.2" class="st1" width="7.5" height="3.4"/>
	<polygon class="st1" points="543.1,31.7 539.1,38.6 547.1,38.6 	"/>
	<rect x="487.4" y="7.7" class="st1" width="0.7" height="36.6"/>
	<polygon class="st1" points="460.9,14.8 452,14.8 451.8,14.6 451.8,1.8 452,1.6 460.9,1.6 461.1,1.8 461.1,3.7 460.9,3.8 
		454.7,3.8 454.5,4 454.5,6.7 454.7,6.9 460.5,6.9 460.7,7.1 460.7,9 460.5,9.1 454.7,9.1 454.5,9.3 454.5,12.4 454.7,12.6 
		460.9,12.6 461.1,12.7 461.1,14.6 	"/>
	<polygon class="st1" points="422.7,19.6 425.4,19.6 425.7,19.8 430.9,28.5 431,28.5 431,19.8 431.2,19.6 433.5,19.6 433.7,19.8 
		433.7,32.7 433.5,32.8 430.9,32.8 430.5,32.7 425.4,23.9 425.2,23.9 425.2,32.7 425,32.8 422.7,32.8 422.5,32.7 422.5,19.8 	"/>
	<path class="st1" d="M442.4,33c-3.8,0-5.5-1.9-5.5-4.4l0.2-0.2h2.3l0.2,0.2c0,1.3,0.8,2.1,3,2.1c1.7,0,2.7-0.6,2.7-1.7
		c0-1.3-0.8-1.7-3.4-2.1c-2.7-0.4-4.7-1.3-4.7-4c0-1.9,1.5-3.6,5.1-3.6s5.1,1.7,5.1,4l-0.2,0.2h-2.3l-0.2-0.2c0-1.1-0.6-1.7-2.6-1.7
		c-1.7,0-2.3,0.6-2.3,1.3c0,1.1,0.8,1.5,3.4,1.9c2.7,0.4,4.7,1.5,4.7,4.2C447.9,31.1,446.4,33,442.4,33"/>
	<polygon class="st1" points="451.8,33 451.8,32.1 451.8,31.3 458.6,19.9 459.1,19.3 460.5,19.3 460.5,20.2 460.5,21 453.8,32.3 
		453.8,32.5 453.2,33 	"/>
	<polygon class="st1" points="463.1,50.2 461.4,50.2 461.2,50 460.3,47.6 459.9,47.4 455.2,47.4 454.8,47.6 453.8,50 453.7,50.2 
		451.9,50.2 451.8,50 451.8,48.1 456.1,37.1 456.3,37 458.8,37 459,37.1 463.3,48.1 463.3,50 	"/>
	<path class="st1" d="M476.8,50.2h-1.7l-0.2-0.2l-0.2-0.9h-0.2c-0.4,0.4-1.3,1.3-3.4,1.3c-3.8,0-6.2-2.8-6.2-6.8s2.5-6.8,6.4-6.8
		c3.8,0,5.3,2.1,5.7,4l-0.2,0.2h-2.3l-0.2-0.2c-0.4-0.8-0.9-1.7-3-1.7c-2.5,0-3.8,1.9-3.8,4.5c0,2.7,1.3,4.5,3.8,4.5
		c2.1,0,3-1.1,3-2.6l-0.2-0.2H471l-0.2-0.2v-1.9L471,43h5.9l0.2,0.2V50L476.8,50.2z"/>
</g>
</svg>
