<?xml version="1.0" encoding="utf-8"?>
<!-- Generator: Adobe Illustrator 27.5.0, SVG Export Plug-In . SVG Version: 6.00 Build 0)  -->
<svg version="1.1" id="Calque_2_1_" xmlns="http://www.w3.org/2000/svg" xmlns:xlink="http://www.w3.org/1999/xlink" x="0px"
	 y="0px" viewBox="0 0 134.938 62.405" style="enable-background:new 0 0 134.938 62.405;" xml:space="preserve">
<style type="text/css">
	.st0{fill:#2A2E46;}
	.st1{fill:#E84E0F;}
</style>
<g>
	<path class="st0" d="M26.6,33.605c-8.3,0-15.1-6.8-15.1-15.1v-17.9h6.7v17.9c0,4.6,3.8,8.4,8.4,8.4s8.4-3.8,8.4-8.4v-17.9h6.7v17.9
		C41.8,26.805,35,33.605,26.6,33.605z"/>
	<g>
		<polygon class="st0" points="100.9,14.105 112,33.105 119.7,33.105 100.9,0.605 82.2,33.105 89.9,33.105 		"/>
	</g>
	<path class="st0" d="M64.3,33.605c-3.1,0-6.3-0.9-9.2-2.7c-7.7-5.1-9.9-15.5-4.8-23.3s15.5-9.9,23.3-4.9l-3.7,5.6
		c-4.7-3-10.9-1.7-13.9,2.9c-3,4.7-1.7,10.9,2.9,13.9c4.7,3,10.9,1.7,13.9-2.9l5.6,3.7C75.2,30.905,69.8,33.605,64.3,33.605z"/>
	<rect x="64.1" y="13.405" class="st0" width="15" height="6.7"/>
	<g>
		<polygon class="st1" points="100.9,28.505 93,42.405 108.9,42.405 		"/>
	</g>
</g>
<g>
	<path class="st0" d="M82.1,51.705v-3h1.1v3c0,0.6,0.4,1,1,1s1-0.4,1-1v-3h1.1v3c0,1.1-0.9,1.9-2,1.9
		C83,53.705,82.1,52.905,82.1,51.705z"/>
	<path class="st0" d="M90.5,51.305v2.3h-1v-2.1c0-0.6-0.2-0.8-0.7-0.8s-0.8,0.4-0.8,1v2h-1v-3.9h0.7l0.2,0.5
		c0.3-0.3,0.7-0.6,1.2-0.6C90,49.705,90.5,50.305,90.5,51.305z"/>
	<path class="st0" d="M91.5,49.805h1v3.7h-1V49.805z M91.5,48.405h1v0.9h-1V48.405z"/>
	<path class="st0" d="M97,49.805l-1.5,3.7h-0.9l-1.5-3.7h1.1l0.9,2.5l0.9-2.5H97z"/>
	<path class="st0" d="M101,52.005h-2.8c0.1,0.5,0.4,0.8,0.9,0.8c0.4,0,0.6-0.2,0.8-0.4h1.1c-0.3,0.8-1,1.3-1.9,1.3
		c-1.1,0-1.9-0.9-1.9-2s0.8-2,1.9-2s1.9,0.9,1.9,2C101,51.805,101,51.905,101,52.005z M98.2,51.305h1.8c-0.1-0.5-0.5-0.7-0.9-0.7
		C98.6,50.605,98.3,50.805,98.2,51.305z"/>
	<path class="st0" d="M104,49.805v1h-0.4c-0.6,0-0.8,0.3-0.8,0.9v1.9h-1v-3.8h0.6l0.2,0.5c0.3-0.3,0.6-0.5,1.1-0.5H104z"/>
	<path class="st0" d="M105.8,53.705c-0.9,0-1.6-0.5-1.6-1.3h1c0,0.3,0.3,0.5,0.6,0.5c0.3,0,0.5-0.1,0.5-0.4c0-0.3-0.3-0.3-0.7-0.4
		c-0.6-0.1-1.4-0.3-1.4-1.1c0-0.7,0.6-1.2,1.5-1.2s1.5,0.5,1.5,1.3h-1c0-0.3-0.2-0.4-0.6-0.4c-0.3,0-0.5,0.1-0.5,0.4
		c0,0.2,0.3,0.3,0.7,0.4c0.6,0.1,1.4,0.2,1.4,1.2C107.4,53.205,106.8,53.705,105.8,53.705L105.8,53.705z"/>
	<path class="st0" d="M108.1,49.805h1v3.7h-1V49.805z M108.1,48.405h1v0.9h-1V48.405z"/>
	<path class="st0" d="M112.4,52.705v0.9h-0.7c-0.8,0-1.3-0.5-1.3-1.3v-1.6h-0.7v-0.2l1.5-1.7h0.2v1h1v0.8h-1v1.5
		c0,0.4,0.2,0.6,0.6,0.6L112.4,52.705L112.4,52.705z"/>
	<path class="st0" d="M116.7,52.005h-2.8c0.1,0.5,0.4,0.8,0.9,0.8c0.4,0,0.6-0.2,0.8-0.4h1.1c-0.3,0.8-1,1.3-1.9,1.3
		c-1.1,0-1.9-0.9-1.9-2s0.8-2,1.9-2s1.9,0.9,1.9,2C116.7,51.805,116.7,51.905,116.7,52.005z M113.9,51.305h1.8
		c-0.1-0.5-0.5-0.7-0.9-0.7C114.3,50.605,114,50.805,113.9,51.305z M115.1,49.405h-0.8l0.4-1.1h1.1L115.1,49.405z"/>
	<path class="st0" d="M86.9,58.405c0,1.5-1,2.6-2.5,2.6c-1.4,0-2.5-1.1-2.5-2.5c0-1.5,1.1-2.5,2.5-2.5c1.2,0,2.2,0.8,2.4,1.8h-1.1
		c-0.2-0.5-0.7-0.8-1.3-0.8c-0.9,0-1.4,0.6-1.4,1.5s0.6,1.5,1.4,1.5c0.6,0,1.2-0.3,1.4-0.8h-1.5v-0.8L86.9,58.405L86.9,58.405z"/>
	<path class="st0" d="M89.8,57.205v1h-0.4c-0.6,0-0.8,0.3-0.8,0.9v1.9h-1v-3.7h0.6l0.2,0.5c0.3-0.3,0.6-0.5,1.1-0.5h0.3V57.205z"/>
	<path class="st0" d="M93.9,59.405h-2.8c0.1,0.5,0.4,0.8,0.9,0.8c0.4,0,0.6-0.2,0.8-0.4h1.1c-0.3,0.8-1,1.3-1.9,1.3
		c-1.1,0-1.9-0.9-1.9-2s0.8-2,1.9-2s1.9,0.9,1.9,2C93.9,59.205,93.9,59.305,93.9,59.405z M91.1,58.705h1.8c-0.1-0.5-0.5-0.7-0.9-0.7
		S91.2,58.205,91.1,58.705z"/>
	<path class="st0" d="M98.2,58.705v2.3h-1v-2.2c0-0.6-0.2-0.8-0.7-0.8s-0.8,0.4-0.8,1v2h-1v-3.7h0.7l0.2,0.5
		c0.3-0.3,0.7-0.6,1.2-0.6C97.7,57.105,98.2,57.705,98.2,58.705z"/>
	<path class="st0" d="M98.9,59.105c0-1.1,0.9-2,2-2c1.2,0,2,0.8,2,2c0,1.1-0.9,2-2,2C99.7,61.105,98.9,60.205,98.9,59.105z
		 M101.9,59.105c0-0.6-0.4-1-1-1s-1,0.4-1,1s0.4,1,1,1C101.5,60.105,101.9,59.705,101.9,59.105z"/>
	<path class="st0" d="M107.6,59.105c0,1.1-0.8,2-2,2c-0.5,0-0.9-0.2-1.2-0.4l-0.1,0.3h-0.7v-5.1h1v1.6c0.3-0.2,0.6-0.3,1-0.3
		C106.8,57.105,107.6,57.905,107.6,59.105z M106.6,59.105c0-0.6-0.4-1-1-1s-1,0.4-1,1s0.4,1,1,1S106.6,59.705,106.6,59.105z"/>
	<path class="st0" d="M108.4,55.905h1v5.1h-1V55.905z"/>
	<path class="st0" d="M114,59.405h-2.8c0.1,0.5,0.4,0.8,0.9,0.8c0.4,0,0.6-0.2,0.8-0.4h1.1c-0.3,0.8-1,1.3-1.9,1.3
		c-1.1,0-1.9-0.9-1.9-2s0.8-2,1.9-2s1.9,0.9,1.9,2C114,59.205,114,59.305,114,59.405z M111.2,58.705h1.8c-0.1-0.5-0.5-0.7-0.9-0.7
		C111.6,58.005,111.3,58.205,111.2,58.705z"/>
	<path class="st0" d="M119.1,60.005h-1.9l-0.3,0.9h-1.1l1.9-4.9h1l2,4.9h-1.1L119.1,60.005z M117.5,59.105h1.3l-0.6-1.7
		L117.5,59.105z"/>
	<path class="st0" d="M121.2,55.905h1v5.1h-1V55.905z"/>
	<path class="st0" d="M127.1,59.105c0,1.1-0.8,2-2,2c-0.4,0-0.7-0.1-1-0.3v1.6h-1v-5.1h0.7l0.2,0.3c0.3-0.3,0.7-0.4,1.2-0.4
		C126.3,57.105,127.1,57.905,127.1,59.105z M126.1,59.105c0-0.6-0.4-1-1-1s-1,0.4-1,1s0.4,1,1,1S126.1,59.705,126.1,59.105z"/>
	<path class="st0" d="M131.5,59.405h-2.8c0.1,0.5,0.4,0.8,0.9,0.8c0.4,0,0.6-0.2,0.8-0.4h1.1c-0.3,0.8-1,1.3-1.9,1.3
		c-1.1,0-1.9-0.9-1.9-2s0.8-2,1.9-2c1.1,0,1.9,0.9,1.9,2C131.5,59.205,131.5,59.305,131.5,59.405z M128.7,58.705h1.8
		c-0.1-0.5-0.5-0.7-0.9-0.7C129.1,58.005,128.8,58.205,128.7,58.705z"/>
	<path class="st0" d="M133.5,61.105c-0.9,0-1.6-0.5-1.6-1.3h1c0,0.3,0.3,0.5,0.6,0.5s0.5-0.1,0.5-0.4s-0.3-0.3-0.7-0.4
		c-0.6-0.1-1.4-0.3-1.4-1.1c0-0.7,0.6-1.2,1.5-1.2s1.5,0.5,1.5,1.3h-1c0-0.3-0.2-0.4-0.6-0.4c-0.3,0-0.5,0.1-0.5,0.4
		c0,0.2,0.3,0.3,0.7,0.4c0.6,0.1,1.4,0.2,1.4,1.2C135.1,60.605,134.5,61.105,133.5,61.105L133.5,61.105z"/>
</g>
<g>
	<g>
		<path class="st1" d="M19.4,50.005c0,6.3-4.7,10.9-11.1,10.9H0v-21.8h8.3C14.7,39.105,19.4,43.705,19.4,50.005z M14.5,50.005
			c0-3.8-2.6-6.5-6.4-6.5H4.7v13h3.5C11.9,56.505,14.5,53.805,14.5,50.005z"/>
		<path class="st1" d="M21.3,53.805h4.8c0,2.1,1.7,3.1,3.7,3.1c1.8,0,3.5-0.9,3.5-2.6c0-1.7-2-2.1-4.4-2.7c-3.3-0.8-7.3-1.8-7.3-6.4
			c0-4.2,3.1-6.5,7.9-6.5c5,0,7.9,2.7,7.9,7h-4.7c0-1.9-1.6-2.7-3.3-2.7c-1.5,0-3.1,0.6-3.1,2.1s1.9,2,4.2,2.5
			c3.3,0.8,7.5,1.9,7.5,6.7c0,4.7-3.8,7-8.3,7C24.8,61.305,21.3,58.505,21.3,53.805z"/>
		<path class="st1" d="M41.3,39.105H46v21.7h-4.7V39.105z"/>
		<path class="st1" d="M72.4,60.805l-2.2-14.2l-6.5,14.2h-1.2l-6.5-14.1l-2.1,14.1h-4.8l3.4-21.7h4.7l6,13.3l6-13.3H74l3.3,21.7
			H72.4L72.4,60.805z"/>
	</g>
</g>
</svg>
